<svg width="300" height="188" viewBox="0 0 300 188" fill="none" xmlns="http://www.w3.org/2000/svg">
<path d="M75 34.9375V51.8125H93.75V34.9375H75ZM206.25 34.9375V51.8125H225V34.9375H206.25ZM75 68.6875V85.5625H93.75V68.6875H75ZM206.25 68.6875V85.5625H225V68.6875H206.25ZM75 102.437V119.313H93.75V102.437H75ZM206.25 102.437V119.313H225V102.437H206.25ZM75 136.188V153.062H93.75V136.188H75ZM206.25 136.188V153.062H225V136.188H206.25Z" fill="#EF6C33"/>
<path d="M28.125 0.25C20.6658 0.25 13.5121 3.21316 8.23762 8.48762C2.96316 13.7621 0 20.9158 0 28.375L0 56.5C0 58.9864 0.987721 61.371 2.74587 63.1291C4.50403 64.8873 6.8886 65.875 9.375 65.875C16.8342 65.875 23.9879 68.8382 29.2624 74.1126C34.5368 79.3871 37.5 86.5408 37.5 94C37.5 101.459 34.5368 108.613 29.2624 113.887C23.9879 119.162 16.8342 122.125 9.375 122.125C6.8886 122.125 4.50403 123.113 2.74587 124.871C0.987721 126.629 0 129.014 0 131.5L0 159.625C0 167.084 2.96316 174.238 8.23762 179.512C13.5121 184.787 20.6658 187.75 28.125 187.75H271.875C279.334 187.75 286.488 184.787 291.762 179.512C297.037 174.238 300 167.084 300 159.625V131.5C300 129.014 299.012 126.629 297.254 124.871C295.496 123.113 293.111 122.125 290.625 122.125C283.166 122.125 276.012 119.162 270.738 113.887C265.463 108.613 262.5 101.459 262.5 94C262.5 86.5408 265.463 79.3871 270.738 74.1126C276.012 68.8382 283.166 65.875 290.625 65.875C293.111 65.875 295.496 64.8873 297.254 63.1291C299.012 61.371 300 58.9864 300 56.5V28.375C300 20.9158 297.037 13.7621 291.762 8.48762C286.488 3.21316 279.334 0.25 271.875 0.25H28.125ZM18.75 28.375C18.75 25.8886 19.7377 23.504 21.4959 21.7459C23.254 19.9877 25.6386 19 28.125 19H271.875C274.361 19 276.746 19.9877 278.504 21.7459C280.262 23.504 281.25 25.8886 281.25 28.375V48.0625C270.654 50.2142 261.127 55.9631 254.284 64.3351C247.441 72.7071 243.703 83.1873 243.703 94C243.703 104.813 247.441 115.293 254.284 123.665C261.127 132.037 270.654 137.786 281.25 139.937V159.625C281.25 162.111 280.262 164.496 278.504 166.254C276.746 168.012 274.361 169 271.875 169H28.125C25.6386 169 23.254 168.012 21.4959 166.254C19.7377 164.496 18.75 162.111 18.75 159.625V139.937C29.3465 137.786 38.8732 132.037 45.716 123.665C52.5589 115.293 56.297 104.813 56.297 94C56.297 83.1873 52.5589 72.7071 45.716 64.3351C38.8732 55.9631 29.3465 50.2142 18.75 48.0625V28.375Z" fill="#EF6C33"/>
<path d="M153.611 83.0344C154.299 80.9719 157.211 80.9719 157.899 83.0344L161.93 95.1406C162.817 97.8019 164.312 100.22 166.296 102.203C168.281 104.186 170.699 105.68 173.361 106.566L185.461 110.597C187.524 111.284 187.524 114.197 185.461 114.884L173.355 118.916C170.694 119.803 168.276 121.298 166.293 123.282C164.309 125.266 162.816 127.685 161.93 130.347L157.899 142.447C157.75 142.899 157.463 143.292 157.078 143.571C156.693 143.849 156.23 144 155.755 144C155.28 144 154.816 143.849 154.431 143.571C154.046 143.292 153.759 142.899 153.611 142.447L149.58 130.341C148.693 127.68 147.199 125.262 145.216 123.279C143.233 121.296 140.816 119.802 138.155 118.916L126.049 114.884C125.597 114.736 125.204 114.449 124.925 114.064C124.646 113.679 124.496 113.216 124.496 112.741C124.496 112.265 124.646 111.802 124.925 111.417C125.204 111.032 125.597 110.745 126.049 110.597L138.155 106.566C140.816 105.679 143.233 104.185 145.216 102.202C147.199 100.219 148.693 97.8012 149.58 95.1406L153.611 83.0344ZM129.467 51.1656C129.557 50.895 129.73 50.6594 129.961 50.4925C130.192 50.3256 130.47 50.2357 130.755 50.2357C131.04 50.2357 131.318 50.3256 131.549 50.4925C131.78 50.6594 131.953 50.895 132.042 51.1656L134.461 58.4281C135.542 61.6656 138.08 64.2031 141.317 65.2844L148.58 67.7031C148.851 67.7928 149.086 67.9654 149.253 68.1965C149.42 68.4277 149.51 68.7055 149.51 68.9906C149.51 69.2758 149.42 69.5536 149.253 69.7847C149.086 70.0159 148.851 70.1885 148.58 70.2781L141.317 72.6969C139.72 73.2271 138.268 74.1231 137.078 75.3134C135.887 76.5037 134.991 77.9555 134.461 79.5531L132.042 86.8156C131.953 87.0863 131.78 87.3218 131.549 87.4888C131.318 87.6557 131.04 87.7456 130.755 87.7456C130.47 87.7456 130.192 87.6557 129.961 87.4888C129.73 87.3218 129.557 87.0863 129.467 86.8156L127.049 79.5531C126.518 77.9555 125.622 76.5037 124.432 75.3134C123.242 74.1231 121.79 73.2271 120.192 72.6969L112.93 70.2781C112.659 70.1885 112.424 70.0159 112.257 69.7847C112.09 69.5536 112 69.2758 112 68.9906C112 68.7055 112.09 68.4277 112.257 68.1965C112.424 67.9654 112.659 67.7928 112.93 67.7031L120.192 65.2844C121.79 64.7542 123.242 63.8582 124.432 62.6679C125.622 61.4776 126.518 60.0258 127.049 58.4281L129.467 51.1656ZM173.649 44.6094C173.71 44.4314 173.826 44.2771 173.979 44.1679C174.133 44.0587 174.317 44 174.505 44C174.693 44 174.877 44.0587 175.03 44.1679C175.184 44.2771 175.299 44.4314 175.361 44.6094L176.974 49.4469C177.692 51.6094 179.386 53.3031 181.549 54.0219L186.386 55.6344C186.564 55.6961 186.718 55.8117 186.828 55.9652C186.937 56.1186 186.996 56.3023 186.996 56.4906C186.996 56.679 186.937 56.8627 186.828 57.0161C186.718 57.1696 186.564 57.2852 186.386 57.3469L181.549 58.9594C180.484 59.3156 179.516 59.9143 178.723 60.7082C177.929 61.5022 177.33 62.4696 176.974 63.5344L175.361 68.3719C175.299 68.5499 175.184 68.7042 175.03 68.8134C174.877 68.9226 174.693 68.9813 174.505 68.9813C174.317 68.9813 174.133 68.9226 173.979 68.8134C173.826 68.7042 173.71 68.5499 173.649 68.3719L172.036 63.5344C171.68 62.4696 171.081 61.5022 170.287 60.7082C169.493 59.9143 168.526 59.3156 167.461 58.9594L162.63 57.3469C162.452 57.2852 162.298 57.1696 162.188 57.0161C162.079 56.8627 162.021 56.679 162.021 56.4906C162.021 56.3023 162.079 56.1186 162.188 55.9652C162.298 55.8117 162.452 55.6961 162.63 55.6344L167.467 54.0219C169.63 53.3031 171.324 51.6094 172.042 49.4469L173.649 44.6094Z" fill="#0C4A60"/>
</svg>
