<svg width="302" height="318" viewBox="0 0 302 318" fill="none" xmlns="http://www.w3.org/2000/svg">
<path d="M75 90.9375V107.813H93.75V90.9375H75ZM206.25 90.9375V107.813H225V90.9375H206.25ZM75 124.688V141.563H93.75V124.688H75ZM206.25 124.688V141.563H225V124.688H206.25ZM75 158.437V175.313H93.75V158.437H75ZM206.25 158.437V175.313H225V158.437H206.25ZM75 192.188V209.062H93.75V192.188H75ZM206.25 192.188V209.062H225V192.188H206.25Z" fill="#EF6C33"/>
<path d="M28.125 56.25C20.6658 56.25 13.5121 59.2132 8.23762 64.4876C2.96316 69.7621 0 76.9158 0 84.375V112.5C0 114.986 0.987721 117.371 2.74587 119.129C4.50403 120.887 6.8886 121.875 9.375 121.875C16.8342 121.875 23.9879 124.838 29.2624 130.113C34.5368 135.387 37.5 142.541 37.5 150C37.5 157.459 34.5368 164.613 29.2624 169.887C23.9879 175.162 16.8342 178.125 9.375 178.125C6.8886 178.125 4.50403 179.113 2.74587 180.871C0.987721 182.629 0 185.014 0 187.5V215.625C0 223.084 2.96316 230.238 8.23762 235.512C13.5121 240.787 20.6658 243.75 28.125 243.75H271.875C279.334 243.75 286.488 240.787 291.762 235.512C297.037 230.238 300 223.084 300 215.625V187.5C300 185.014 299.012 182.629 297.254 180.871C295.496 179.113 293.111 178.125 290.625 178.125C283.166 178.125 276.012 175.162 270.738 169.887C265.463 164.613 262.5 157.459 262.5 150C262.5 142.541 265.463 135.387 270.738 130.113C276.012 124.838 283.166 121.875 290.625 121.875C293.111 121.875 295.496 120.887 297.254 119.129C299.012 117.371 300 114.986 300 112.5V84.375C300 76.9158 297.037 69.7621 291.762 64.4876C286.488 59.2132 279.334 56.25 271.875 56.25H28.125ZM18.75 84.375C18.75 81.8886 19.7377 79.504 21.4959 77.7459C23.254 75.9877 25.6386 75 28.125 75H271.875C274.361 75 276.746 75.9877 278.504 77.7459C280.262 79.504 281.25 81.8886 281.25 84.375V104.063C270.654 106.214 261.127 111.963 254.284 120.335C247.441 128.707 243.703 139.187 243.703 150C243.703 160.813 247.441 171.293 254.284 179.665C261.127 188.037 270.654 193.786 281.25 195.937V215.625C281.25 218.111 280.262 220.496 278.504 222.254C276.746 224.012 274.361 225 271.875 225H28.125C25.6386 225 23.254 224.012 21.4959 222.254C19.7377 220.496 18.75 218.111 18.75 215.625V195.937C29.3465 193.786 38.8732 188.037 45.716 179.665C52.5589 171.293 56.297 160.813 56.297 150C56.297 139.187 52.5589 128.707 45.716 120.335C38.8732 111.963 29.3465 106.214 18.75 104.063V84.375Z" fill="#EF6C33"/>
<path d="M153.611 139.034C154.299 136.972 157.211 136.972 157.899 139.034L161.93 151.141C162.817 153.802 164.312 156.22 166.296 158.203C168.281 160.186 170.699 161.68 173.361 162.566L185.461 166.597C187.524 167.284 187.524 170.197 185.461 170.884L173.355 174.916C170.694 175.803 168.276 177.298 166.293 179.282C164.309 181.266 162.816 183.685 161.93 186.347L157.899 198.447C157.75 198.899 157.463 199.292 157.078 199.571C156.693 199.849 156.23 200 155.755 200C155.28 200 154.816 199.849 154.431 199.571C154.046 199.292 153.759 198.899 153.611 198.447L149.58 186.341C148.693 183.68 147.199 181.262 145.216 179.279C143.233 177.296 140.816 175.802 138.155 174.916L126.049 170.884C125.597 170.736 125.204 170.449 124.925 170.064C124.646 169.679 124.496 169.216 124.496 168.741C124.496 168.265 124.646 167.802 124.925 167.417C125.204 167.032 125.597 166.745 126.049 166.597L138.155 162.566C140.816 161.679 143.233 160.185 145.216 158.202C147.199 156.219 148.693 153.801 149.58 151.141L153.611 139.034ZM129.467 107.166C129.557 106.895 129.73 106.659 129.961 106.493C130.192 106.326 130.47 106.236 130.755 106.236C131.04 106.236 131.318 106.326 131.549 106.493C131.78 106.659 131.953 106.895 132.042 107.166L134.461 114.428C135.542 117.666 138.08 120.203 141.317 121.284L148.58 123.703C148.851 123.793 149.086 123.965 149.253 124.197C149.42 124.428 149.51 124.706 149.51 124.991C149.51 125.276 149.42 125.554 149.253 125.785C149.086 126.016 148.851 126.189 148.58 126.278L141.317 128.697C139.72 129.227 138.268 130.123 137.078 131.313C135.887 132.504 134.991 133.955 134.461 135.553L132.042 142.816C131.953 143.086 131.78 143.322 131.549 143.489C131.318 143.656 131.04 143.746 130.755 143.746C130.47 143.746 130.192 143.656 129.961 143.489C129.73 143.322 129.557 143.086 129.467 142.816L127.049 135.553C126.518 133.955 125.622 132.504 124.432 131.313C123.242 130.123 121.79 129.227 120.192 128.697L112.93 126.278C112.659 126.189 112.424 126.016 112.257 125.785C112.09 125.554 112 125.276 112 124.991C112 124.706 112.09 124.428 112.257 124.197C112.424 123.965 112.659 123.793 112.93 123.703L120.192 121.284C121.79 120.754 123.242 119.858 124.432 118.668C125.622 117.478 126.518 116.026 127.049 114.428L129.467 107.166ZM173.649 100.609C173.71 100.431 173.826 100.277 173.979 100.168C174.133 100.059 174.317 100 174.505 100C174.693 100 174.877 100.059 175.03 100.168C175.184 100.277 175.299 100.431 175.361 100.609L176.974 105.447C177.692 107.609 179.386 109.303 181.549 110.022L186.386 111.634C186.564 111.696 186.718 111.812 186.828 111.965C186.937 112.119 186.996 112.302 186.996 112.491C186.996 112.679 186.937 112.863 186.828 113.016C186.718 113.17 186.564 113.285 186.386 113.347L181.549 114.959C180.484 115.316 179.516 115.914 178.723 116.708C177.929 117.502 177.33 118.47 176.974 119.534L175.361 124.372C175.299 124.55 175.184 124.704 175.03 124.813C174.877 124.923 174.693 124.981 174.505 124.981C174.317 124.981 174.133 124.923 173.979 124.813C173.826 124.704 173.71 124.55 173.649 124.372L172.036 119.534C171.68 118.47 171.081 117.502 170.287 116.708C169.493 115.914 168.526 115.316 167.461 114.959L162.63 113.347C162.452 113.285 162.298 113.17 162.188 113.016C162.079 112.863 162.021 112.679 162.021 112.491C162.021 112.302 162.079 112.119 162.188 111.965C162.298 111.812 162.452 111.696 162.63 111.634L167.467 110.022C169.63 109.303 171.324 107.609 172.042 105.447L173.649 100.609Z" fill="#0C4A60"/>
<path d="M15.42 306.48C11.46 306.48 8.62 305.92 6.9 304.8C5.22 303.68 4.14 301.76 3.66 299.04C3.18 296.28 2.94 291.72 2.94 285.36C2.94 279 3.18 274.46 3.66 271.74C4.14 268.98 5.22 267.04 6.9 265.92C8.62 264.8 11.46 264.24 15.42 264.24C19.38 264.24 22.2 264.8 23.88 265.92C25.6 267.04 26.7 268.98 27.18 271.74C27.66 274.46 27.9 279 27.9 285.36C27.9 291.72 27.66 296.28 27.18 299.04C26.7 301.76 25.6 303.68 23.88 304.8C22.2 305.92 19.38 306.48 15.42 306.48ZM15.42 301.56C17.7 301.56 19.26 301.28 20.1 300.72C20.98 300.16 21.56 298.84 21.84 296.76C22.12 294.64 22.26 290.84 22.26 285.36C22.26 279.88 22.12 276.1 21.84 274.02C21.56 271.9 20.98 270.56 20.1 270C19.26 269.44 17.7 269.16 15.42 269.16C13.14 269.16 11.58 269.44 10.74 270C9.9 270.56 9.34 271.88 9.06 273.96C8.78 276.04 8.64 279.84 8.64 285.36C8.64 290.88 8.78 294.68 9.06 296.76C9.34 298.84 9.9 300.16 10.74 300.72C11.58 301.28 13.14 301.56 15.42 301.56ZM34.3589 275.4H39.1589L39.3989 279.48H39.7589C40.3189 277.72 41.1989 276.52 42.3989 275.88C43.6389 275.24 45.0989 274.92 46.7789 274.92C49.0189 274.92 50.7189 275.36 51.8789 276.24C53.0789 277.12 53.9189 278.68 54.3989 280.92C54.9189 283.12 55.1789 286.36 55.1789 290.64C55.1789 294.88 54.9389 298.12 54.4589 300.36C53.9789 302.6 53.1389 304.18 51.9389 305.1C50.7789 306.02 49.0789 306.48 46.8389 306.48C45.0789 306.48 43.6389 306.18 42.5189 305.58C41.3989 304.94 40.5589 303.88 39.9989 302.4H39.6989V317.52H34.3589V275.4ZM44.6789 301.74C46.3189 301.74 47.4589 301.52 48.0989 301.08C48.7789 300.6 49.2389 299.64 49.4789 298.2C49.7189 296.72 49.8389 294.22 49.8389 290.7C49.8389 287.18 49.7189 284.7 49.4789 283.26C49.2389 281.82 48.7789 280.88 48.0989 280.44C47.4589 279.96 46.3189 279.72 44.6789 279.72C43.3589 279.72 42.3389 279.98 41.6189 280.5C40.8989 281.02 40.3989 281.92 40.1189 283.2C39.9189 284.04 39.7989 285 39.7589 286.08C39.7189 287.12 39.6989 288.66 39.6989 290.7C39.6989 294.02 39.7989 296.3 39.9989 297.54C40.2789 299.1 40.7789 300.2 41.4989 300.84C42.2189 301.44 43.2789 301.74 44.6789 301.74ZM80.7534 292.38H65.6334C65.6334 295.34 65.7734 297.46 66.0534 298.74C66.3334 299.98 66.9134 300.84 67.7934 301.32C68.7134 301.76 70.2534 301.98 72.4134 301.98C74.6134 301.98 77.1134 301.78 79.9134 301.38V305.58C78.9534 305.82 77.6534 306.02 76.0134 306.18C74.4134 306.38 72.8534 306.48 71.3334 306.48C68.0134 306.48 65.5734 306 64.0134 305.04C62.4934 304.08 61.4934 302.56 61.0134 300.48C60.5734 298.36 60.3534 295.12 60.3534 290.76C60.3534 286.44 60.5534 283.24 60.9534 281.16C61.3934 279.04 62.3534 277.48 63.8334 276.48C65.3134 275.44 67.6934 274.92 70.9734 274.92C74.0934 274.92 76.3334 275.4 77.6934 276.36C79.0534 277.32 79.8934 278.82 80.2134 280.86C80.5734 282.9 80.7534 286.18 80.7534 290.7V292.38ZM70.8534 279.3C69.2534 279.3 68.0934 279.52 67.3734 279.96C66.6934 280.4 66.2334 281.24 65.9934 282.48C65.7934 283.72 65.6734 285.78 65.6334 288.66H75.6534V288.18C75.6534 285.46 75.5134 283.5 75.2334 282.3C74.9934 281.06 74.5534 280.26 73.9134 279.9C73.2734 279.5 72.2534 279.3 70.8534 279.3ZM101.799 288.48C101.799 285.72 101.679 283.76 101.439 282.6C101.239 281.4 100.839 280.62 100.239 280.26C99.6389 279.9 98.6189 279.72 97.1789 279.72C95.6189 279.72 94.4789 280.08 93.7589 280.8C93.0789 281.52 92.6389 282.56 92.4389 283.92C92.2789 285.24 92.1989 287.28 92.1989 290.04V306H86.8589V275.4H91.6589L91.8989 279.48H92.2589C92.7789 277.96 93.6189 276.82 94.7789 276.06C95.9389 275.3 97.5189 274.92 99.5189 274.92C101.679 274.92 103.299 275.32 104.379 276.12C105.459 276.92 106.179 278.12 106.539 279.72C106.939 281.32 107.139 283.58 107.139 286.5V306H101.799V288.48ZM113.809 267.12V261.42H119.329V267.12H113.809ZM113.929 306V275.4H119.269V306H113.929ZM141.115 288.48C141.115 285.72 140.995 283.76 140.755 282.6C140.555 281.4 140.155 280.62 139.555 280.26C138.955 279.9 137.935 279.72 136.495 279.72C134.935 279.72 133.795 280.08 133.075 280.8C132.395 281.52 131.955 282.56 131.755 283.92C131.595 285.24 131.515 287.28 131.515 290.04V306H126.175V275.4H130.975L131.215 279.48H131.575C132.095 277.96 132.935 276.82 134.095 276.06C135.255 275.3 136.835 274.92 138.835 274.92C140.995 274.92 142.615 275.32 143.695 276.12C144.775 276.92 145.495 278.12 145.855 279.72C146.255 281.32 146.455 283.58 146.455 286.5V306H141.115V288.48ZM161.766 317.94C158.966 317.94 156.266 317.76 153.666 317.4V313.26C154.506 313.26 155.566 313.3 156.846 313.38L160.686 313.44C162.926 313.44 164.526 313.18 165.486 312.66C166.446 312.14 167.066 311.22 167.346 309.9C167.666 308.58 167.826 306.4 167.826 303.36V302.16H167.466C166.946 303.64 166.126 304.68 165.006 305.28C163.886 305.88 162.446 306.18 160.686 306.18C158.446 306.18 156.726 305.74 155.526 304.86C154.366 303.98 153.546 302.44 153.066 300.24C152.586 298.04 152.346 294.84 152.346 290.64C152.346 286.36 152.586 283.12 153.066 280.92C153.546 278.68 154.366 277.12 155.526 276.24C156.726 275.36 158.446 274.92 160.686 274.92C162.366 274.92 163.806 275.24 165.006 275.88C166.246 276.52 167.146 277.72 167.706 279.48H168.066L168.306 275.4H173.166V301.74C173.166 306.06 172.926 309.3 172.446 311.46C171.966 313.66 170.906 315.28 169.266 316.32C167.666 317.4 165.166 317.94 161.766 317.94ZM162.786 301.5C164.106 301.5 165.106 301.24 165.786 300.72C166.506 300.2 167.006 299.32 167.286 298.08C167.646 296.52 167.826 294.04 167.826 290.64C167.826 287.28 167.686 284.94 167.406 283.62C167.126 282.18 166.626 281.18 165.906 280.62C165.226 280.02 164.186 279.72 162.786 279.72C161.146 279.72 159.986 279.96 159.306 280.44C158.666 280.88 158.226 281.82 157.986 283.26C157.786 284.7 157.686 287.16 157.686 290.64C157.686 294.08 157.786 296.52 157.986 297.96C158.226 299.4 158.686 300.36 159.366 300.84C160.046 301.28 161.186 301.5 162.786 301.5Z" fill="#EF6C33"/>
<path d="M210.345 306L197.685 276.78H197.445V306H191.985V264.72H197.865L210.105 292.98H210.345V264.72H215.805V306H210.345ZM223.028 267.12V261.42H228.548V267.12H223.028ZM223.148 306V275.4H228.488V306H223.148ZM243.914 317.94C241.114 317.94 238.414 317.76 235.814 317.4V313.26C236.654 313.26 237.714 313.3 238.994 313.38L242.834 313.44C245.074 313.44 246.674 313.18 247.634 312.66C248.594 312.14 249.214 311.22 249.494 309.9C249.814 308.58 249.974 306.4 249.974 303.36V302.16H249.614C249.094 303.64 248.274 304.68 247.154 305.28C246.034 305.88 244.594 306.18 242.834 306.18C240.594 306.18 238.874 305.74 237.674 304.86C236.514 303.98 235.694 302.44 235.214 300.24C234.734 298.04 234.494 294.84 234.494 290.64C234.494 286.36 234.734 283.12 235.214 280.92C235.694 278.68 236.514 277.12 237.674 276.24C238.874 275.36 240.594 274.92 242.834 274.92C244.514 274.92 245.954 275.24 247.154 275.88C248.394 276.52 249.294 277.72 249.854 279.48H250.214L250.454 275.4H255.314V301.74C255.314 306.06 255.074 309.3 254.594 311.46C254.114 313.66 253.054 315.28 251.414 316.32C249.814 317.4 247.314 317.94 243.914 317.94ZM244.934 301.5C246.254 301.5 247.254 301.24 247.934 300.72C248.654 300.2 249.154 299.32 249.434 298.08C249.794 296.52 249.974 294.04 249.974 290.64C249.974 287.28 249.834 284.94 249.554 283.62C249.274 282.18 248.774 281.18 248.054 280.62C247.374 280.02 246.334 279.72 244.934 279.72C243.294 279.72 242.134 279.96 241.454 280.44C240.814 280.88 240.374 281.82 240.134 283.26C239.934 284.7 239.834 287.16 239.834 290.64C239.834 294.08 239.934 296.52 240.134 297.96C240.374 299.4 240.834 300.36 241.514 300.84C242.194 301.28 243.334 301.5 244.934 301.5ZM277.17 288.48C277.17 285.72 277.05 283.76 276.81 282.6C276.61 281.4 276.21 280.62 275.61 280.26C275.01 279.9 273.99 279.72 272.55 279.72C270.99 279.72 269.85 280.08 269.13 280.8C268.45 281.52 268.01 282.56 267.81 283.92C267.65 285.24 267.57 287.28 267.57 290.04V306H262.23V261.42H267.57V279H267.87C268.95 276.28 271.29 274.92 274.89 274.92C277.05 274.92 278.67 275.32 279.75 276.12C280.83 276.92 281.55 278.12 281.91 279.72C282.31 281.32 282.51 283.54 282.51 286.38V306H277.17V288.48ZM291.16 306V279.9H286.96V275.4H291.16V266.52H296.56V275.4H301.6V279.9H296.56V306H291.16Z" fill="#0C4A60"/>
</svg>
